<?xml version="1.0" encoding="utf-8"?>
<svg width="1440" height="720" viewBox="0 0 1440 720" fill="none" xmlns="http://www.w3.org/2000/svg">
  <path fill-rule="evenodd" clip-rule="evenodd" d="M 911.454 0 C 884.031 17.868 861.956 34.479 846.718 47.13 C 753.311 124.675 707.831 216.699 721.588 318.538 C 743.643 481.8 953.543 514.555 991.772 528.406 C 1016.996 537.545 1450.049 605.799 1440.652 447.872 C 1455.669 351.304 1440 720 1440 720 L 0 720 L 0 0 L 911.454 0 Z M 870.536 557.324 C 880.388 549.145 910.949 528.971 941.077 535.162 C 969.307 540.964 981.843 581.237 955.885 613.494 C 935.224 639.17 857.496 635.604 853.272 594.771 C 851.813 580.667 857.649 568.023 870.536 557.324 Z M 788.796 539.966 C 787.968 559.058 803.643 570.602 815.725 565.037 C 829.693 558.605 836.706 544.696 824.075 530.789 C 811.336 516.764 789.455 524.77 788.796 539.966 Z" fill="#FAFAFE" fill-opacity="0.94"/>
</svg>