<svg width="100" height="100" viewBox="0 0 100 100" fill="none" xmlns="http://www.w3.org/2000/svg">
<path d="M14 23.2C15.3807 23.2 16.5 22.0807 16.5 20.7C16.5 19.3193 15.3807 18.2 14 18.2C12.6193 18.2 11.5 19.3193 11.5 20.7C11.5 22.0807 12.6193 23.2 14 23.2Z" fill="#7C809B"/>
<path d="M21.3 23.2C22.6808 23.2 23.8 22.0807 23.8 20.7C23.8 19.3193 22.6808 18.2 21.3 18.2C19.9193 18.2 18.8 19.3193 18.8 20.7C18.8 22.0807 19.9193 23.2 21.3 23.2Z" fill="#7C809B"/>
<path d="M28.5 23.2C29.8807 23.2 31 22.0807 31 20.7C31 19.3193 29.8807 18.2 28.5 18.2C27.1193 18.2 26 19.3193 26 20.7C26 22.0807 27.1193 23.2 28.5 23.2Z" fill="#7C809B"/>
<path d="M90.4 9H8.6C5 9 2 11.9 2 15.6V83.5C2 87.1 4.9 90.1 8.6 90.1H90.5C94.1 90.1 97.1 87.2 97.1 83.5V15.6C97 12 94.1 9 90.4 9ZM8.6 14.1H90.5C91.3 14.1 92 14.8 92 15.6V27.3H7.1V15.6C7.1 14.8 7.8 14.1 8.6 14.1ZM90.4 84.9H8.6C7.8 84.9 7.1 84.2 7.1 83.4V32.3H91.9V83.4C91.9 84.2 91.2 84.9 90.4 84.9Z" fill="#7C809B"/>
<path d="M35.9001 55.9L38.7001 53.1L41.5 55.9C42 56.4 42.6 56.6 43.3 56.6C44 56.6 44.6 56.4 45.1 55.9C46.1 54.9 46.1 53.3 45.1 52.3L42.3 49.5L45.1 46.7C46.1 45.7 46.1 44.1 45.1 43.1C44.1 42.1 42.5 42.1 41.5 43.1L38.7001 45.9L35.9001 43.1C34.9001 42.1 33.3 42.1 32.3 43.1C31.3 44.1 31.3 45.7 32.3 46.7L35.1 49.5L32.3 52.3C31.3 53.3 31.3 54.9 32.3 55.9C32.8 56.4 33.4 56.6 34.1 56.6C34.8 56.6 35.4001 56.4 35.9001 55.9Z" fill="#7C809B"/>
<path d="M66.7 43.2C65.7 42.2 64.1 42.2 63.1 43.2L60.3 46L57.5 43.2C56.5 42.2 54.9 42.2 53.9 43.2C52.9 44.2 52.9 45.8 53.9 46.8L56.7 49.6L53.9 52.4C52.9 53.4 52.9 55 53.9 56C54.4 56.5 55 56.7 55.7 56.7C56.4 56.7 57 56.5 57.5 56L60.3 53.2L63.1 56C63.6 56.5 64.2 56.7 64.9 56.7C65.6 56.7 66.2 56.5 66.7 56C67.7 55 67.7 53.4 66.7 52.4L63.9 49.5L66.7 46.7C67.7 45.8 67.7 44.2 66.7 43.2Z" fill="#7C809B"/>
<path d="M49.5 60.9C42.6 60.9 36.3999 65 33.5999 71.3C32.9999 72.6 33.6 74.1 34.9 74.6C36.2 75.2 37.7 74.6 38.2 73.3C40.1 68.8 44.5 65.9 49.4 65.9C54.2 65.9 58.6 68.8 60.5 73.3C60.9 74.3 61.9 74.8 62.8 74.8C63.1 74.8 63.5 74.7 63.8 74.6C65.1 74 65.7 72.6 65.1 71.3C62.6 65 56.4 60.9 49.5 60.9Z" fill="#7C809B"/>
</svg>
